#Comment line ignore any data following # character 
#Hierarchical Translation and Rotation (.htr) file 
[Header]	
#Header keywords are followed by a single value 
FileType HTR		#Single word string
DataType HTRS		#Translation followed by rotation and scale data
FileVersion 1		#integer
NumSegments 84		#integer
NumFrames 2		#integer
DataFrameRate 30		#integer, data frame rate in this file
EulerRotationOrder ZYX
CalibrationUnits mm
RotationUnits Degrees
GlobalAxisofGravity Y
BoneLengthAxis Y
ScaleFactor 1.00
[SegmentNames&Hierarchy]
#CHILD	PARENT
MASTER GLOBAL
root MASTER
chest root
L_mid_tent01 root
R_mid_tent01 root
spine01 root
Bip01_Neck chest
L_humerus chest
R_humerus chest
weapon_bone chest
Bip01_Head Bip01_Neck
eye_left_bone Bip01_Head
eye_right_bone Bip01_Head
L_forearm L_humerus
L_front_hand L_forearm
L_weapon_bone L_forearm
L_front_hand01_01 L_front_hand
L_front_hand02_01 L_front_hand
L_front_hand03_01 L_front_hand
L_front_hand01_02 L_front_hand01_01
L_front_hand02_02 L_front_hand02_01
L_front_hand03_02 L_front_hand03_01
R_forearm R_humerus
R_front_hand R_forearm
R_weapon_bone R_forearm
R_front_hand01_01 R_front_hand
R_front_hand02_01 R_front_hand
R_front_hand03_01 R_front_hand
R_front_hand01_02 R_front_hand01_01
R_front_hand02_02 R_front_hand02_01
R_front_hand03_02 R_front_hand03_01
null_rope01_connect L_mid_tent01
Rope1_Seg01 null_rope01_connect
Rope1_Seg02 Rope1_Seg01
Rope1_Seg03 Rope1_Seg02
Rope1_Seg04 Rope1_Seg03
Rope1_Seg05 Rope1_Seg04
Rope1_Seg06 Rope1_Seg05
Rope1_Seg07 Rope1_Seg06
Rope1_Seg09 Rope1_Seg07
L_mid_hand01 Rope1_Seg09
L_mid_hand02 Rope1_Seg09
L_mid_hand03 Rope1_Seg09
null_rope02_connect R_mid_tent01
Rope2_Seg01 null_rope02_connect
Rope2_Seg02 Rope2_Seg01
Rope2_Seg03 Rope2_Seg02
Rope2_Seg04 Rope2_Seg03
Rope2_Seg05 Rope2_Seg04
Rope2_Seg06 Rope2_Seg05
Rope2_Seg07 Rope2_Seg06
Rope2_Seg09 Rope2_Seg07
R_mid_hand01 Rope2_Seg09
R_mid_hand02 Rope2_Seg09
R_mid_hand03 Rope2_Seg09
spine02 spine01
spine03 spine02
pelvis spine03
null_rope03_connect pelvis
null_rope04_connect pelvis
Rope3_Seg01 null_rope03_connect
Rope3_Seg02 Rope3_Seg01
Rope3_Seg03 Rope3_Seg02
Rope3_Seg04 Rope3_Seg03
Rope3_Seg05 Rope3_Seg04
Rope3_Seg06 Rope3_Seg05
Rope3_Seg07 Rope3_Seg06
Rope3_Seg08 Rope3_Seg07
Rope3_Seg09 Rope3_Seg08
R_rear_hand01 Rope3_Seg09
R_rear_hand02 Rope3_Seg09
R_rear_hand03 Rope3_Seg09
Rope4_Seg01 null_rope04_connect
Rope4_Seg02 Rope4_Seg01
Rope4_Seg03 Rope4_Seg02
Rope4_Seg04 Rope4_Seg03
Rope4_Seg05 Rope4_Seg04
Rope4_Seg06 Rope4_Seg05
Rope4_Seg07 Rope4_Seg06
Rope4_Seg08 Rope4_Seg07
Rope4_Seg09 Rope4_Seg08
L_rear_hand01 Rope4_Seg09
L_rear_hand02 Rope4_Seg09
L_rear_hand03 Rope4_Seg09
[BasePosition]
#SegmentName Tx, Ty, Tz, Rx, Ry, Rz, BoneLength
MASTER 0.000000 0.000000 0.000000 -90.000000 0.000000 0.000000 10.000000 
root 0.000000 0.000000 0.000000 0.000000 0.000000 0.000000 10.000000 
chest 0.000000 0.000000 0.000000 0.000000 0.000000 0.000000 10.000000 
L_mid_tent01 0.000000 0.000000 0.000000 0.000000 0.000000 0.000000 10.000000 
R_mid_tent01 0.000000 0.000000 0.000000 0.000000 0.000000 0.000000 10.000000 
spine01 0.000000 0.000000 0.000000 0.000000 0.000000 0.000000 10.000000 
Bip01_Neck 0.000000 0.000000 0.000000 0.000000 0.000000 0.000000 10.000000 
L_humerus 0.000000 0.000000 0.000000 0.000000 0.000000 0.000000 10.000000 
R_humerus 0.000000 0.000000 0.000000 0.000000 0.000000 0.000000 10.000000 
weapon_bone 0.000000 0.000000 0.000000 0.000000 0.000000 0.000000 10.000000 
Bip01_Head 0.000000 0.000000 0.000000 0.000000 0.000000 0.000000 10.000000 
eye_left_bone 0.000000 0.000000 0.000000 0.000000 0.000000 0.000000 10.000000 
eye_right_bone 0.000000 0.000000 0.000000 0.000000 0.000000 0.000000 10.000000 
L_forearm 0.000000 0.000000 0.000000 0.000000 0.000000 0.000000 10.000000 
L_front_hand 0.000000 0.000000 0.000000 0.000000 0.000000 0.000000 10.000000 
L_weapon_bone 0.000000 0.000000 0.000000 0.000000 0.000000 0.000000 10.000000 
L_front_hand01_01 0.000000 0.000000 0.000000 0.000000 0.000000 0.000000 10.000000 
L_front_hand02_01 0.000000 0.000000 0.000000 0.000000 0.000000 0.000000 10.000000 
L_front_hand03_01 0.000000 0.000000 0.000000 0.000000 0.000000 0.000000 10.000000 
L_front_hand01_02 0.000000 0.000000 0.000000 0.000000 0.000000 0.000000 10.000000 
L_front_hand02_02 0.000000 0.000000 0.000000 0.000000 0.000000 0.000000 10.000000 
L_front_hand03_02 0.000000 0.000000 0.000000 0.000000 0.000000 0.000000 10.000000 
R_forearm 0.000000 0.000000 0.000000 0.000000 0.000000 0.000000 10.000000 
R_front_hand 0.000000 0.000000 0.000000 0.000000 0.000000 0.000000 10.000000 
R_weapon_bone 0.000000 0.000000 0.000000 0.000000 0.000000 0.000000 10.000000 
R_front_hand01_01 0.000000 0.000000 0.000000 0.000000 0.000000 0.000000 10.000000 
R_front_hand02_01 0.000000 0.000000 0.000000 0.000000 0.000000 0.000000 10.000000 
R_front_hand03_01 0.000000 0.000000 0.000000 0.000000 0.000000 0.000000 10.000000 
R_front_hand01_02 0.000000 0.000000 0.000000 0.000000 0.000000 0.000000 10.000000 
R_front_hand02_02 0.000000 0.000000 0.000000 0.000000 0.000000 0.000000 10.000000 
R_front_hand03_02 0.000000 0.000000 0.000000 0.000000 0.000000 0.000000 10.000000 
null_rope01_connect 0.000000 0.000000 0.000000 0.000000 0.000000 0.000000 10.000000 
Rope1_Seg01 0.000000 0.000000 0.000000 0.000000 0.000000 0.000000 10.000000 
Rope1_Seg02 0.000000 0.000000 0.000000 0.000000 0.000000 0.000000 10.000000 
Rope1_Seg03 0.000000 0.000000 0.000000 0.000000 0.000000 0.000000 10.000000 
Rope1_Seg04 0.000000 0.000000 0.000000 0.000000 0.000000 0.000000 10.000000 
Rope1_Seg05 0.000000 0.000000 0.000000 0.000000 0.000000 0.000000 10.000000 
Rope1_Seg06 0.000000 0.000000 0.000000 0.000000 0.000000 0.000000 10.000000 
Rope1_Seg07 0.000000 0.000000 0.000000 0.000000 0.000000 0.000000 10.000000 
Rope1_Seg09 0.000000 0.000000 0.000000 0.000000 0.000000 0.000000 10.000000 
L_mid_hand01 0.000000 0.000000 0.000000 0.000000 0.000000 0.000000 10.000000 
L_mid_hand02 0.000000 0.000000 0.000000 0.000000 0.000000 0.000000 10.000000 
L_mid_hand03 0.000000 0.000000 0.000000 0.000000 0.000000 0.000000 10.000000 
null_rope02_connect 0.000000 0.000000 0.000000 0.000000 0.000000 0.000000 10.000000 
Rope2_Seg01 0.000000 0.000000 0.000000 0.000000 0.000000 0.000000 10.000000 
Rope2_Seg02 0.000000 0.000000 0.000000 0.000000 0.000000 0.000000 10.000000 
Rope2_Seg03 0.000000 0.000000 0.000000 0.000000 0.000000 0.000000 10.000000 
Rope2_Seg04 0.000000 0.000000 0.000000 0.000000 0.000000 0.000000 10.000000 
Rope2_Seg05 0.000000 0.000000 0.000000 0.000000 0.000000 0.000000 10.000000 
Rope2_Seg06 0.000000 0.000000 0.000000 0.000000 0.000000 0.000000 10.000000 
Rope2_Seg07 0.000000 0.000000 0.000000 0.000000 0.000000 0.000000 10.000000 
Rope2_Seg09 0.000000 0.000000 0.000000 0.000000 0.000000 0.000000 10.000000 
R_mid_hand01 0.000000 0.000000 0.000000 0.000000 0.000000 0.000000 10.000000 
R_mid_hand02 0.000000 0.000000 0.000000 0.000000 0.000000 0.000000 10.000000 
R_mid_hand03 0.000000 0.000000 0.000000 0.000000 0.000000 0.000000 10.000000 
spine02 0.000000 0.000000 0.000000 0.000000 0.000000 0.000000 10.000000 
spine03 0.000000 0.000000 0.000000 0.000000 0.000000 0.000000 10.000000 
pelvis 0.000000 0.000000 0.000000 0.000000 0.000000 0.000000 10.000000 
null_rope03_connect 0.000000 0.000000 0.000000 0.000000 0.000000 0.000000 10.000000 
null_rope04_connect 0.000000 0.000000 0.000000 0.000000 0.000000 0.000000 10.000000 
Rope3_Seg01 0.000000 0.000000 0.000000 0.000000 0.000000 0.000000 10.000000 
Rope3_Seg02 0.000000 0.000000 0.000000 0.000000 0.000000 0.000000 10.000000 
Rope3_Seg03 0.000000 0.000000 0.000000 0.000000 0.000000 0.000000 10.000000 
Rope3_Seg04 0.000000 0.000000 0.000000 0.000000 0.000000 0.000000 10.000000 
Rope3_Seg05 0.000000 0.000000 0.000000 0.000000 0.000000 0.000000 10.000000 
Rope3_Seg06 0.000000 0.000000 0.000000 0.000000 0.000000 0.000000 10.000000 
Rope3_Seg07 0.000000 0.000000 0.000000 0.000000 0.000000 0.000000 10.000000 
Rope3_Seg08 0.000000 0.000000 0.000000 0.000000 0.000000 0.000000 10.000000 
Rope3_Seg09 0.000000 0.000000 0.000000 0.000000 0.000000 0.000000 10.000000 
R_rear_hand01 0.000000 0.000000 0.000000 0.000000 0.000000 0.000000 10.000000 
R_rear_hand02 0.000000 0.000000 0.000000 0.000000 0.000000 0.000000 10.000000 
R_rear_hand03 0.000000 0.000000 0.000000 0.000000 0.000000 0.000000 10.000000 
Rope4_Seg01 0.000000 0.000000 0.000000 0.000000 0.000000 0.000000 10.000000 
Rope4_Seg02 0.000000 0.000000 0.000000 0.000000 0.000000 0.000000 10.000000 
Rope4_Seg03 0.000000 0.000000 0.000000 0.000000 0.000000 0.000000 10.000000 
Rope4_Seg04 0.000000 0.000000 0.000000 0.000000 0.000000 0.000000 10.000000 
Rope4_Seg05 0.000000 0.000000 0.000000 0.000000 0.000000 0.000000 10.000000 
Rope4_Seg06 0.000000 0.000000 0.000000 0.000000 0.000000 0.000000 10.000000 
Rope4_Seg07 0.000000 0.000000 0.000000 0.000000 0.000000 0.000000 10.000000 
Rope4_Seg08 0.000000 0.000000 0.000000 0.000000 0.000000 0.000000 10.000000 
Rope4_Seg09 0.000000 0.000000 0.000000 0.000000 0.000000 0.000000 10.000000 
L_rear_hand01 0.000000 0.000000 0.000000 0.000000 0.000000 0.000000 10.000000 
L_rear_hand02 0.000000 0.000000 0.000000 0.000000 0.000000 0.000000 10.000000 
L_rear_hand03 0.000000 0.000000 0.000000 0.000000 0.000000 0.000000 10.000000 
#Beginning of Data. Separated by tabs
#Fr	Tx	Ty	Tz	Rx	Ry	Rz	SF
[MASTER]
30 0.000000 0.000000 0.000000 0.001660 0.001660 0.001660 0.000000
31 0.000000 0.000000 0.000000 0.001660 0.001660 0.001660 0.000000
[root]
30 -16.502291 -62.822117 1598.827881 -91.629700 -27.676081 -90.148109 1600.146851
31 -16.502291 -62.822109 1580.573730 -91.629700 -27.676081 -90.148109 1581.907715
[chest]
30 -84.512650 -34.090519 0.000000 -1.994499 0.405230 -177.941010 91.129311
31 -84.512650 -34.090519 0.000000 -2.209746 0.450842 179.865952 91.129311
[L_mid_tent01]
30 27.299681 22.177290 -249.917801 -14.335545 32.516701 52.318882 252.380692
31 27.299700 22.177261 -249.917770 -17.396610 29.880749 46.953114 252.380661
[R_mid_tent01]
30 23.228794 24.509907 226.238495 173.933975 -36.537739 61.847576 228.744751
31 23.228794 24.509907 226.238495 176.098938 -33.014080 57.124374 228.744751
[spine01]
30 -0.361383 -0.195265 0.000000 0.001885 0.001399 16.856356 0.410763
31 -0.361383 -0.195265 0.000000 0.001882 0.001403 16.614740 0.410763
[Bip01_Neck]
30 165.484543 71.581718 0.000119 175.896118 1.177290 24.871183 180.302734
31 165.484543 71.581718 0.000119 175.896118 1.177290 24.871183 180.302734
[L_humerus]
30 -13.983130 -135.272980 -120.471481 178.028427 18.351391 -116.352180 181.680161
31 -13.983130 -135.272980 -120.471481 175.225845 26.222206 -114.381264 181.680161
[R_humerus]
30 -13.983309 -135.273102 125.287651 -174.801712 -17.495955 -115.028954 184.909012
31 -13.983309 -135.273102 125.287651 -172.975159 -25.617310 -111.905739 184.909012
[weapon_bone]
30 235.964890 -300.705902 0.000000 0.000000 -89.951546 -128.212341 382.234833
31 235.964890 -300.705902 0.000000 0.000000 -89.951546 -128.212341 382.234833
[Bip01_Head]
30 139.400299 185.421432 16.763321 1.498619 3.781766 -23.861429 232.582382
31 153.154755 225.842224 19.601494 1.085504 3.875052 -25.581322 273.578705
[eye_left_bone]
30 -24.626970 125.451866 -64.772606 0.000000 -90.000000 -99.840431 143.318359
31 -24.626970 125.451866 -64.772606 0.000000 -90.000000 -99.840431 143.318359
[eye_right_bone]
30 -24.626970 125.451866 64.327362 0.000000 -89.960434 80.159386 143.117676
31 -24.626970 125.451866 64.327362 0.000000 -89.960434 80.159386 143.117676
[L_forearm]
30 322.776093 0.000000 -0.000119 0.000017 0.002347 -89.149834 322.776093
31 322.776093 0.000000 -0.000119 0.000017 0.002347 -89.149834 322.776093
[L_front_hand]
30 241.149185 -0.042021 -3.300071 -179.629425 -2.239612 -0.821849 241.171753
31 241.149185 -0.042021 -3.300071 -179.472641 -2.207068 -4.842887 241.171753
[L_weapon_bone]
30 151.683929 32.415310 0.001272 0.001903 0.001375 18.299236 155.108887
31 151.458054 34.042271 0.001373 0.001894 0.001387 17.583239 155.236649
[L_front_hand01_01]
30 86.095154 20.947098 -0.655860 0.405585 -0.442306 -4.620490 88.609184
31 86.095154 20.947098 -0.655860 0.405585 -0.442306 -4.620490 88.609184
[L_front_hand02_01]
30 86.935165 -11.437475 24.513514 116.959450 3.630817 1.495453 91.046425
31 86.935165 -11.437475 24.513514 116.959450 3.630817 1.495453 91.046425
[L_front_hand03_01]
30 86.637497 -14.123976 -20.424902 -118.420097 -4.656303 -0.152527 90.126129
31 86.637497 -14.123976 -20.424902 -118.420097 -4.656303 -0.152527 90.126129
[L_front_hand01_02]
30 71.020905 -0.000179 0.000030 0.000004 -0.000005 -8.379269 71.020905
31 71.020905 -0.000179 0.000030 0.000004 -0.000005 -8.379269 71.020905
[L_front_hand02_02]
30 71.020927 -0.000119 0.000060 -0.000005 -0.000004 -8.379259 71.020927
31 71.020927 -0.000119 0.000060 -0.000005 -0.000004 -8.379259 71.020927
[L_front_hand03_02]
30 71.020905 -0.000060 0.000060 0.000015 -0.000040 -8.379267 71.020905
31 71.020905 -0.000060 0.000060 0.000015 -0.000040 -8.379267 71.020905
[R_forearm]
30 322.776428 -0.000060 0.000030 0.212176 -0.026810 -83.713692 322.776428
31 322.776428 -0.000060 0.000030 0.210462 -0.041255 -79.666626 322.776428
[R_front_hand]
30 238.847015 -0.006795 2.210259 -0.597431 1.621582 -9.008401 238.857239
31 238.847015 -0.006795 2.210259 -0.730565 1.562287 -13.807090 238.857239
[R_weapon_bone]
30 155.664093 0.002503 -0.000030 0.003437 0.001318 -95.567268 155.664078
31 155.664093 0.002503 -0.000030 0.003451 0.001280 -94.312263 155.664078
[R_front_hand01_01]
30 87.624611 14.231146 22.918642 -116.960213 3.496675 -1.324139 91.683487
31 87.624611 14.231146 22.918642 -116.960213 3.496675 -1.324139 91.683487
[R_front_hand02_01]
30 89.356956 14.367283 -19.491137 118.419647 -4.257089 0.609827 92.579636
31 89.356956 14.367283 -19.491137 118.419647 -4.257089 0.609827 92.579636
[R_front_hand03_01]
30 87.286232 -22.307278 -0.143439 -0.387970 -0.231462 4.232001 90.091743
31 87.286232 -22.307278 -0.143439 -0.387970 -0.231462 4.232001 90.091743
[R_front_hand01_02]
30 71.020905 0.000060 0.000119 -0.000005 -0.000020 8.379271 71.020905
31 71.020905 0.000060 0.000119 -0.000005 -0.000020 8.379271 71.020905
[R_front_hand02_02]
30 71.020844 -0.000030 -0.000119 0.000000 -0.000021 8.379271 71.020836
31 71.020844 -0.000030 -0.000119 0.000000 -0.000021 8.379271 71.020836
[R_front_hand03_02]
30 71.020905 0.000000 0.000030 -0.000001 -0.000020 8.379275 71.020905
31 71.020905 0.000000 0.000030 -0.000001 -0.000020 8.379275 71.020905
[null_rope01_connect]
30 328.732483 0.000000 -0.000238 -140.387177 -53.098064 -158.383453 328.732483
31 328.732483 0.000000 -0.000238 -141.715347 -54.139858 -152.180634 328.732483
[Rope1_Seg01]
30 0.000013 -0.000045 0.000126 -157.682770 43.228825 -129.698486 0.000135
31 0.000011 -0.000044 0.000131 -137.196533 37.358231 -121.411995 0.000138
[Rope1_Seg02]
30 139.999863 -0.000179 0.000000 18.175934 -6.995520 -3.592548 139.999863
31 139.999863 -0.000179 0.000000 23.678091 -6.682414 -2.762110 139.999863
[Rope1_Seg03]
30 139.999924 0.000060 -0.000060 14.849545 -9.323794 -1.631307 139.999924
31 139.999924 0.000060 -0.000060 15.428238 -8.494013 -0.084988 139.999924
[Rope1_Seg04]
30 139.999924 -0.000060 -0.000119 13.518150 -11.554213 -1.512422 139.999924
31 139.999924 -0.000060 -0.000119 12.235093 -10.393978 0.842520 139.999924
[Rope1_Seg05]
30 139.999832 0.000119 -0.000060 1.992069 -8.899294 6.275004 139.999832
31 139.999832 0.000119 -0.000060 -1.286153 -5.301929 7.126215 139.999832
[Rope1_Seg06]
30 139.999954 0.000119 -0.000060 -3.125134 -2.932082 9.267207 139.999954
31 139.999954 0.000119 -0.000060 -5.129323 -0.789345 8.704126 139.999954
[Rope1_Seg07]
30 139.999985 0.000060 0.000000 -0.806895 -2.923276 5.095012 139.999985
31 139.999985 0.000060 0.000000 -1.546993 -2.313174 5.323266 139.999985
[Rope1_Seg09]
30 121.602913 0.000119 -0.000089 -89.793175 -1.359789 0.847147 121.602913
31 121.602913 0.000119 -0.000089 -89.793175 -1.359789 0.847147 121.602913
[L_mid_hand01]
30 103.859421 1.038730 8.195221 104.352036 0.341479 -0.444583 104.187431
31 103.859421 1.038730 8.195221 104.352036 0.341479 -0.444583 104.187431
[L_mid_hand02]
30 105.572853 -4.139662 -10.864139 -135.608444 3.905687 -3.381056 106.211075
31 105.572853 -4.139662 -10.864139 -135.608444 3.905687 -3.381056 106.211075
[L_mid_hand03]
30 104.641464 17.579376 -3.913581 -18.761518 -0.324361 2.942912 106.179977
31 104.641464 17.579376 -3.913581 -18.761515 -0.324361 2.942912 106.179977
[null_rope02_connect]
30 328.732849 0.000179 -0.000119 -112.739876 54.430706 9.748337 328.732849
31 328.732849 0.000179 -0.000119 -110.738655 58.148613 7.851584 328.732849
[Rope2_Seg01]
30 0.000121 0.000114 -0.000126 -174.418198 48.561432 -52.532784 0.000209
31 0.000120 0.000114 -0.000131 167.833969 43.576382 -60.163631 0.000211
[Rope2_Seg02]
30 139.999741 -0.000060 -0.000119 0.346319 -4.133972 1.558014 139.999756
31 139.999741 -0.000060 -0.000119 0.160463 -2.868891 1.165217 139.999756
[Rope2_Seg03]
30 140.000107 0.000030 0.000000 0.287085 -5.193948 2.003710 140.000107
31 140.000107 0.000030 0.000000 0.204863 -3.755761 1.499289 140.000107
[Rope2_Seg04]
30 139.999802 0.000000 -0.000060 1.749992 -7.083783 1.137231 139.999802
31 139.999802 0.000000 -0.000060 2.831501 -5.993594 0.061477 139.999802
[Rope2_Seg05]
30 139.999985 -0.000060 0.000119 -0.526418 -7.815217 3.880259 139.999985
31 139.999985 -0.000060 0.000119 -3.927942 -5.367680 6.679138 139.999985
[Rope2_Seg06]
30 139.999893 -0.000030 -0.000119 -4.867573 -7.597882 12.377829 139.999893
31 139.999893 -0.000030 -0.000119 -8.358184 -3.921752 14.450426 139.999893
[Rope2_Seg07]
30 139.999893 0.000060 -0.000060 -2.969315 -9.556605 12.670805 139.999893
31 139.999893 0.000060 -0.000060 -4.062641 -6.342823 11.152325 139.999893
[Rope2_Seg09]
30 121.338966 0.000089 -0.000060 33.793236 -1.359788 -0.847141 121.338966
31 121.338966 0.000089 -0.000060 33.793236 -1.359788 -0.847141 121.338966
[R_mid_hand01]
30 104.680779 11.144459 -10.335981 -47.384258 2.963522 5.452604 105.778534
31 104.680779 11.144459 -10.335981 -47.384258 2.963522 5.452604 105.778534
[R_mid_hand02]
30 104.070427 2.443552 8.231699 75.626297 -2.250001 1.111093 104.424065
31 104.070427 2.443552 8.231699 75.626297 -2.250001 1.111093 104.424065
[R_mid_hand03]
30 106.028137 -11.221827 -5.996406 -164.381912 2.495983 -6.140520 106.788818
31 106.028137 -11.221827 -5.996406 -164.381912 2.495983 -6.140520 106.788818
[spine02]
30 129.756927 0.001550 0.000119 -0.568137 -4.029163 0.160204 129.756927
31 129.756927 0.001550 0.000119 -0.519102 -4.037335 -0.529371 129.756927
[spine03]
30 78.728630 0.067871 -3.781116 0.029894 4.371157 -9.128373 78.819405
31 78.709557 0.071233 -3.967401 0.099149 4.358485 -8.247164 78.809517
[pelvis]
30 169.435242 0.051022 0.000000 -1.367952 -0.884025 1.219094 169.435257
31 169.435242 0.051022 0.000000 -1.123004 -0.763469 0.659549 169.435257
[null_rope03_connect]
30 -1.257226 -2.466202 137.391083 -165.044937 -87.081604 -86.376694 137.418976
31 -1.257226 -2.466202 137.391083 -162.841583 -87.386261 -87.955856 137.418976
[null_rope04_connect]
30 -1.259640 -2.480268 -137.844437 -165.044937 -87.081604 -86.376694 137.872513
31 -1.259640 -2.480268 -137.844437 -162.841583 -87.386261 -87.955856 137.872513
[Rope3_Seg01]
30 -0.000040 -0.000012 -0.000002 -130.880020 9.864567 -77.856102 0.000042
31 -0.000040 -0.000016 -0.000001 -130.742386 8.562245 -77.305923 0.000043
[Rope3_Seg02]
30 139.999924 -0.000119 0.000060 -0.065870 4.572510 -7.147868 139.999924
31 139.999924 -0.000119 0.000060 0.026315 3.373837 -4.540836 139.999924
[Rope3_Seg03]
30 139.999924 -0.000119 0.000119 -1.567878 7.579919 -12.209772 139.999924
31 139.999924 -0.000119 0.000119 -0.463226 5.157959 -7.008981 139.999924
[Rope3_Seg04]
30 139.999924 0.000119 0.000000 -9.296709 14.705039 -25.480469 139.999924
31 139.999924 0.000119 0.000000 -4.474734 12.197483 -18.263113 139.999924
[Rope3_Seg05]
30 139.999924 -0.000238 0.000060 -1.151325 4.161318 -1.084508 139.999924
31 139.999924 -0.000238 0.000060 -1.403520 5.455828 -4.220604 139.999924
[Rope3_Seg06]
30 139.999893 -0.000119 -0.000060 1.586137 -1.899084 6.320494 139.999893
31 139.999893 -0.000119 -0.000060 1.381714 -4.351947 8.465385 139.999893
[Rope3_Seg07]
30 139.999771 0.000060 -0.000119 0.563950 0.662290 1.439257 139.999771
31 139.999771 0.000060 -0.000119 0.643099 -0.375606 1.997753 139.999771
[Rope3_Seg08]
30 139.999985 -0.000060 0.000000 0.568944 0.432353 0.913845 139.999985
31 139.999985 -0.000060 0.000000 0.602830 -0.212430 1.207326 139.999985
[Rope3_Seg09]
30 90.185997 -0.000179 -0.000060 89.793228 -1.359877 -0.847183 90.185997
31 90.185997 -0.000179 -0.000060 89.793228 -1.359877 -0.847183 90.185997
[R_rear_hand01]
30 103.366196 -6.073594 -10.757982 -156.049316 6.070419 -2.795869 104.101845
31 103.366196 -6.073594 -10.757982 -156.049316 6.070419 -2.795869 104.101845
[R_rear_hand02]
30 100.509819 12.039542 -7.992327 -38.708435 1.958051 5.461186 101.543350
31 100.509819 12.039542 -7.992327 -38.708435 1.958051 5.461186 101.543350
[R_rear_hand03]
30 101.539970 5.215704 5.435467 84.307625 -2.361032 4.099037 101.819031
31 101.539970 5.215704 5.435467 84.307625 -2.361032 4.099037 101.819031
[Rope4_Seg01]
30 -0.000024 -0.000082 -0.000140 46.635189 0.269951 -102.483376 0.000163
31 -0.000025 -0.000087 -0.000142 46.716515 -2.926145 -103.700836 0.000168
[Rope4_Seg02]
30 139.999985 0.000060 0.000119 -0.048507 -5.702675 5.681156 139.999985
31 139.999985 0.000060 0.000119 0.154769 -2.413439 3.773459 139.999985
[Rope4_Seg03]
30 139.999924 0.000000 -0.000238 0.329830 -7.281816 6.927844 139.999924
31 139.999924 0.000000 -0.000238 0.216973 -2.987206 4.652742 139.999924
[Rope4_Seg04]
30 139.999985 0.000000 0.000119 1.061169 -9.338587 7.965578 139.999985
31 139.999985 0.000000 0.000119 0.316151 -4.521987 5.837116 139.999985
[Rope4_Seg05]
30 139.999802 -0.000060 -0.000119 1.613287 -4.250939 9.684358 139.999802
31 139.999802 -0.000060 -0.000119 0.460783 -3.045238 7.148078 139.999802
[Rope4_Seg06]
30 139.999924 0.000000 0.000060 1.163698 -1.101602 8.049440 139.999924
31 139.999924 0.000000 0.000060 0.343145 -0.311945 5.512359 139.999924
[Rope4_Seg07]
30 139.999802 0.000000 0.000000 0.739833 -1.681832 6.057804 139.999802
31 139.999802 0.000000 0.000000 0.189454 -0.896620 4.462427 139.999802
[Rope4_Seg08]
30 139.999924 0.000000 0.000119 -1.108878 -1.048396 3.999171 139.999924
31 139.999924 0.000000 0.000119 -1.464899 -0.632093 3.061868 139.999924
[Rope4_Seg09]
30 90.185791 0.000060 0.000060 -135.617828 2.228885 0.850567 90.185791
31 90.185791 0.000060 0.000060 -135.617828 2.228885 0.850567 90.185791
[L_rear_hand01]
30 101.696655 -8.392275 -7.654577 -38.746338 0.246096 177.290207 102.329041
31 101.696655 -8.392275 -7.654577 -38.746338 0.246096 177.290207 102.329041
[L_rear_hand02]
30 102.726799 -1.568258 5.773216 84.315163 -1.142796 176.247437 102.900848
31 102.726799 -1.568258 5.773216 84.315163 -1.142796 176.247437 102.900848
[L_rear_hand03]
30 104.552910 9.721220 -10.420293 -155.747955 -4.630845 179.564758 105.519653
31 104.552910 9.721220 -10.420293 -155.747955 -4.630845 179.564758 105.519653
